<?xml version="1.0" standalone="no"?><!DOCTYPE svg PUBLIC "-//W3C//DTD SVG 1.1//EN" "http://www.w3.org/Graphics/SVG/1.1/DTD/svg11.dtd"><svg t="1664163552063" class="icon" viewBox="0 0 1024 1024" version="1.1" xmlns="http://www.w3.org/2000/svg" p-id="1995" width="128" height="128" xmlns:xlink="http://www.w3.org/1999/xlink"><path d="M384.19 960.26H193.9c-70.42 0-127.71-57.27-127.71-127.67V193.93c0-70.4 57.29-127.67 127.71-127.67h190.24c17.67 0 32 14.33 32 32s-14.33 32-32 32H193.9c-35.13 0-63.71 28.56-63.71 63.67V832.6c0 35.11 28.58 63.67 63.71 63.67h190.29c17.67 0 32 14.33 32 32s-14.33 31.99-32 31.99zM832.44 960.26H642.16c-17.67 0-32-14.33-32-32s14.33-32 32-32h190.29c35.13 0 63.71-28.56 63.71-63.67V193.93c0-35.11-28.58-63.67-63.71-63.67H642.2c-17.67 0-32-14.33-32-32s14.33-32 32-32h190.24c70.42 0 127.71 57.27 127.71 127.67V832.6c0.01 70.39-57.29 127.66-127.71 127.66zM511.33 159.33c-17.67 0-32-14.33-32-32v-32c0-17.67 14.33-32 32-32s32 14.33 32 32v32c0 17.68-14.32 32-32 32zM511.33 828.86c-17.67 0-32-14.33-32-32V727.3c0-17.67 14.33-32 32-32s32 14.33 32 32v69.56c0 17.67-14.32 32-32 32z m0-167.38c-17.67 0-32-14.33-32-32v-69.56c0-17.67 14.33-32 32-32s32 14.33 32 32v69.56c0 17.67-14.32 32-32 32z m0-167.38c-17.67 0-32-14.33-32-32v-69.56c0-17.67 14.33-32 32-32s32 14.33 32 32v69.56c0 17.67-14.32 32-32 32z m0-167.38c-17.67 0-32-14.33-32-32v-69.56c0-17.67 14.33-32 32-32s32 14.33 32 32v69.56c0 17.67-14.32 32-32 32zM511.33 958.68c-17.67 0-32-14.33-32-32v-32c0-17.67 14.33-32 32-32s32 14.33 32 32v32c0 17.67-14.32 32-32 32z" fill="#4D4D4D" p-id="1996"></path><path d="M283.05 626.05c-8.19 0-16.38-3.12-22.63-9.37-12.5-12.5-12.5-32.76 0-45.25l63.31-63.31-59.16-59.16c-12.5-12.5-12.5-32.76 0-45.25 12.5-12.5 32.76-12.5 45.25 0l81.78 81.78c12.5 12.5 12.5 32.76 0 45.25l-85.94 85.94c-6.23 6.25-14.42 9.37-22.61 9.37zM743.12 626.05c-8.19 0-16.38-3.12-22.63-9.37l-85.94-85.94c-12.5-12.5-12.5-32.76 0-45.25l81.78-81.78c12.5-12.5 32.76-12.5 45.25 0 12.5 12.5 12.5 32.76 0 45.25l-59.16 59.16 63.31 63.31c12.5 12.5 12.5 32.76 0 45.25-6.23 6.25-14.42 9.37-22.61 9.37z" fill="#4D4D4D" p-id="1997"></path></svg>