<svg t="1654480092281" class="icon" viewBox="0 0 1024 1024" version="1.1" xmlns="http://www.w3.org/2000/svg" p-id="10848" width="128" height="128"><path d="M956.8 770.4H67.2C32 770.4 4 741.6 4 707.2v-640C4 32 32 4 67.2 4h889.6c35.2 0 63.2 28.8 63.2 63.2v640c0 35.2-28 63.2-63.2 63.2zM67.2 36c-17.6 0-31.2 14.4-31.2 31.2v640c0 17.6 14.4 31.2 31.2 31.2h889.6c17.6 0 31.2-14.4 31.2-31.2v-640c0-17.6-14.4-31.2-31.2-31.2H67.2z" p-id="10849"></path><path d="M908.8 636.8H115.2c-4.8 0-8-3.2-8-8V115.2c0-4.8 3.2-8 8-8h793.6c4.8 0 8 3.2 8 8v513.6c0 4.8-4 8-8 8z m-785.6-16h777.6V123.2H123.2v497.6zM695.2 936.8H328.8c-4.8 0-9.6-2.4-12.8-6.4-3.2-4-4-9.6-2.4-14.4L368 749.6c2.4-6.4 8-11.2 15.2-11.2h258.4c7.2 0 12.8 4.8 15.2 11.2l54.4 166.4c1.6 4.8 0.8 10.4-2.4 14.4-4 4-8.8 6.4-13.6 6.4z m-344-32h322.4l-44-134.4H394.4l-43.2 134.4z" p-id="10850"></path><path d="M779.2 1020H244.8c-28 0-50.4-22.4-50.4-50.4v-14.4c0-28 22.4-50.4 50.4-50.4h534.4c28 0 50.4 22.4 50.4 50.4v14.4c0 28-22.4 50.4-50.4 50.4z m-534.4-83.2c-10.4 0-18.4 8-18.4 18.4v14.4c0 10.4 8 18.4 18.4 18.4h534.4c10.4 0 18.4-8 18.4-18.4v-14.4c0-10.4-8-18.4-18.4-18.4H244.8zM360 506.4h-61.6c-4.8 0-8-3.2-8-8v-39.2c-5.6-1.6-10.4-4-15.2-6.4L248 480c-3.2 3.2-8 3.2-11.2 0L192 437.6c-1.6-1.6-2.4-3.2-2.4-5.6 0-2.4 0.8-4 2.4-5.6l28-28c-2.4-4.8-4-9.6-5.6-14.4h-40c-4.8 0-8-3.2-8-8v-61.6c0-4.8 3.2-8 8-8H216c1.6-4.8 3.2-8.8 5.6-13.6L192 262.4c-3.2-3.2-3.2-8 0-11.2l43.2-43.2c3.2-3.2 8-3.2 11.2 0l30.4 30.4c4-1.6 8-4 12.8-4.8v-42.4c0-4.8 3.2-8 8-8H360c4.8 0 8 3.2 8 8v42.4c4.8 1.6 8.8 3.2 12.8 4.8l30.4-30.4c3.2-3.2 8-3.2 11.2 0l43.2 43.2c1.6 1.6 2.4 3.2 2.4 5.6 0 2.4-0.8 4-2.4 5.6l-29.6 29.6c2.4 4 4 8.8 5.6 13.6h41.6c4.8 0 8 3.2 8 8v61.6c0 4.8-3.2 8-8 8h-40c-1.6 4.8-3.2 10.4-5.6 14.4l28 28c1.6 1.6 2.4 3.2 2.4 5.6 0 2.4-0.8 4-2.4 5.6L422.4 480c-3.2 3.2-8 3.2-11.2 0L384 452.8c-4.8 2.4-10.4 4.8-15.2 6.4v39.2c-0.8 4.8-4.8 8-8.8 8z m-53.6-16H352v-36.8c0-3.2 2.4-6.4 5.6-8 8-2.4 16-5.6 23.2-9.6 3.2-1.6 7.2-1.6 9.6 1.6L416 464l32-32-26.4-26.4c-2.4-2.4-3.2-6.4-1.6-9.6 4-7.2 6.4-14.4 8.8-22.4 0.8-3.2 4-5.6 8-5.6h38.4v-45.6h-39.2c-3.2 0-6.4-2.4-8-5.6-2.4-7.2-5.6-14.4-9.6-20.8-1.6-3.2-1.6-7.2 1.6-9.6l28-28-32-32-28.8 28.8c-2.4 2.4-6.4 3.2-9.6 1.6-6.4-3.2-13.6-6.4-20.8-8-3.2-0.8-5.6-4-5.6-8V200h-45.6v40.8c0 3.2-2.4 6.4-5.6 8-7.2 2.4-14.4 4.8-20.8 8-3.2 1.6-7.2 0.8-9.6-1.6l-28.8-28.8-32 32 28 28c2.4 2.4 3.2 6.4 1.6 9.6-4 7.2-7.2 14.4-9.6 20.8-0.8 3.2-4 5.6-8 5.6h-39.2V368h38.4c4 0 6.4 2.4 8 5.6 2.4 8 4.8 16 8.8 22.4 1.6 3.2 0.8 7.2-1.6 9.6L209.6 432l32 32 26.4-26.4c2.4-2.4 6.4-3.2 9.6-1.6 7.2 4 15.2 7.2 23.2 9.6 3.2 0.8 5.6 4 5.6 8v36.8z m22.4-72.8c-39.2 0-71.2-32-71.2-71.2s32-71.2 71.2-71.2 71.2 32 71.2 71.2-32 71.2-71.2 71.2z m0-126.4c-30.4 0-55.2 24.8-55.2 55.2 0 30.4 24.8 55.2 55.2 55.2 30.4 0 55.2-24.8 55.2-55.2 0-30.4-24.8-55.2-55.2-55.2zM724 564.8h-42.4c-4.8 0-8-3.2-8-8v-25.6c-2.4-0.8-5.6-2.4-8-3.2L648 545.6c-3.2 3.2-8 3.2-11.2 0l-30.4-30.4c-3.2-3.2-3.2-8 0-11.2l18.4-18.4c-0.8-2.4-1.6-4.8-3.2-7.2h-26.4c-4.8 0-8-3.2-8-8v-42.4c0-4.8 3.2-8 8-8h27.2c0.8-2.4 1.6-4 2.4-6.4l-19.2-19.2c-3.2-3.2-3.2-8 0-11.2l30.4-30.4c3.2-3.2 8-3.2 11.2 0l20 20c1.6-0.8 4-1.6 5.6-2.4v-28c0-4.8 3.2-8 8-8h42.4c4.8 0 8 3.2 8 8v28c2.4 0.8 4 1.6 5.6 2.4l20-20c3.2-3.2 8-3.2 11.2 0l30.4 30.4c1.6 1.6 2.4 3.2 2.4 5.6 0 2.4-0.8 4-2.4 5.6l-19.2 19.2c0.8 2.4 1.6 4 2.4 6.4h27.2c4.8 0 8 3.2 8 8v42.4c0 4.8-3.2 8-8 8h-26.4c-0.8 2.4-1.6 4.8-3.2 7.2l18.4 18.4c1.6 1.6 2.4 3.2 2.4 5.6 0 2.4-0.8 4-2.4 5.6l-30.4 30.4c-3.2 3.2-8 3.2-11.2 0L738.4 528c-2.4 1.6-4.8 2.4-8 3.2v25.6c1.6 4.8-2.4 8-6.4 8z m-35.2-16h26.4v-23.2c0-3.2 2.4-6.4 5.6-8 5.6-1.6 10.4-4 15.2-6.4 3.2-1.6 7.2-1.6 9.6 1.6l16 16 19.2-19.2-16.8-16.8c-2.4-2.4-3.2-6.4-1.6-9.6 2.4-4.8 4.8-9.6 5.6-15.2 0.8-3.2 4-5.6 8-5.6h24v-26.4h-24.8c-3.2 0-6.4-2.4-8-5.6-1.6-4.8-3.2-9.6-6.4-14.4-1.6-3.2-1.6-7.2 1.6-9.6l17.6-17.6-19.2-19.2-18.4 18.4c-2.4 2.4-6.4 3.2-9.6 1.6-4-2.4-8.8-4-13.6-5.6-3.2-0.8-5.6-4-5.6-8v-25.6h-26.4V376c0 3.2-2.4 6.4-5.6 8-4.8 1.6-9.6 3.2-13.6 5.6-3.2 1.6-7.2 0.8-9.6-1.6L640 369.6l-19.2 19.2 17.6 17.6c2.4 2.4 3.2 6.4 1.6 9.6-2.4 4.8-4.8 9.6-6.4 14.4-0.8 3.2-4 5.6-8 5.6h-24.8v26.4h24c4 0 6.4 2.4 8 5.6 1.6 5.6 3.2 10.4 5.6 15.2 1.6 3.2 0.8 7.2-1.6 9.6l-16.8 16.8 19.2 19.2 16-16c2.4-2.4 6.4-3.2 9.6-1.6 4.8 2.4 10.4 4.8 15.2 6.4 3.2 0.8 5.6 4 5.6 8v23.2z m13.6-45.6c-28.8 0-52-23.2-52-52s23.2-52 52-52 52 23.2 52 52-23.2 52-52 52z m0-87.2c-20 0-36 16-36 36s16 36 36 36 36-16 36-36-16-36-36-36zM512 727.2c-17.6 0-32-14.4-32-32s14.4-32 32-32 32 14.4 32 32-14.4 32-32 32z m0-48.8c-8.8 0-16 7.2-16 16s7.2 16 16 16 16-7.2 16-16c0-8-7.2-16-16-16z" p-id="10851"></path></svg>