<svg t="1654479057847" class="icon" viewBox="0 0 1024 1024" version="1.1" xmlns="http://www.w3.org/2000/svg" p-id="6258" width="128" height="128"><path d="M337.109333 94.748444l-182.499555 760.888889 282.168889 75.605334 182.499555-760.888889-282.168889-75.605334zM359.793778 10.097778l282.168889 75.605333a87.637333 87.637333 0 0 1 61.980444 107.335111l-182.499555 760.888889a87.637333 87.637333 0 0 1-107.335112 61.966222l-282.168888-75.605333a87.637333 87.637333 0 0 1-61.980445-107.335111l182.499556-760.888889A87.637333 87.637333 0 0 1 359.793778 10.097778z" p-id="6259"></path><path d="M375.381333 346.951111l84.650667 22.684445a43.818667 43.818667 0 0 0 22.684444-84.650667l-84.650666-22.684445a43.818667 43.818667 0 0 0-22.684445 84.650667zM337.578667 488.049778l84.650666 22.670222a43.818667 43.818667 0 0 0 22.684445-84.650667l-84.650667-22.684444a43.818667 43.818667 0 0 0-22.684444 84.664889zM744.547556 161.436444v817.976889a29.212444 29.212444 0 1 0 58.424888 0V161.422222a29.212444 29.212444 0 0 0-58.424888 0zM861.411556 161.436444v817.976889a14.606222 14.606222 0 1 0 29.212444 0V161.422222a14.606222 14.606222 0 1 0-29.212444 0zM919.836444 161.436444v817.976889a14.606222 14.606222 0 1 0 29.212445 0V161.422222a14.606222 14.606222 0 1 0-29.212445 0z" p-id="6260"></path></svg>