<svg t="1654480546676" class="icon" viewBox="0 0 1024 1024" version="1.1" xmlns="http://www.w3.org/2000/svg" p-id="12842" width="128" height="128"><path d="M949.2 297.2L866.6 128c-17-34.8-53-57.4-91.8-57.4h-522C214.2 70.8 178 93.2 161 128l-82.6 169.2c-2 4-3 8.4-3 13.2v513.4c0 56.2 45.8 102 102 102h672.8c56.2 0 102-45.8 102-102V310.4c0-4.8-1-9.2-3-13.2zM215 154.4c7-14.4 22-23.6 38-23.6h521.8c16 0 30.8 9.2 38 23.6l61.6 126H541V222c0-16.6-13.4-30-30-30s-30 13.4-30 30v58.4H153.4l61.6-126z m677.2 669.4c0 23.2-18.8 42-42 42H177.4c-23.2 0-42-18.8-42-42V340.4h757v483.4z m-656.6-190.6h211.4c16.6 0 30-13.4 30-30v-145.6c0-16.6-13.4-30-30-30H235.6c-16.6 0-30 13.4-30 30v145.6c0 16.6 13.4 30 30 30z m30-145.6h151.4v85.6h-151.4v-85.6zM609 784c0-16.6 13.4-30 30-30h154.4c16.6 0 30 13.4 30 30s-13.4 30-30 30h-154.4c-16.6 0-30-13.4-30-30z" p-id="12843"></path></svg>