<?xml version="1.0" standalone="no"?><!DOCTYPE svg PUBLIC "-//W3C//DTD SVG 1.1//EN" "http://www.w3.org/Graphics/SVG/1.1/DTD/svg11.dtd"><svg t="1665475236450" class="icon" viewBox="0 0 1024 1024" version="1.1" xmlns="http://www.w3.org/2000/svg" p-id="4754" xmlns:xlink="http://www.w3.org/1999/xlink" width="128" height="128"><path d="M517.3 617.9c13.1-18.3 28.7-34.7 46.4-48.5 2.3-1.3 4.3-3 6.1-5 30.8-22.8 67.4-37.6 107.1-42 0.1-3.7 0.1-7.4 0.1-11.1 0.2-10-3-13-13-12.9-46 0.5-91.9 0.6-137.9 0-11.3-0.2-14.1 3.4-13.8 14.1 0.7 25.8 0.3 51.5 0.3 77.3 0 16.6 0 24.4 4.7 28.1z" p-id="4755"></path><path d="M472.8 756.2c0-3.6 0.1-7.2 0.3-10.7h-52.4c-9.1-9.5-12.7-20.6-11.8-33.9 0.9-11.8 0.2-23.7 0.2-35.5 0-51 0-51.4 49.7-54 10.6-0.5 12.5-4.2 12.4-13.6-0.5-32.7-0.5-65.5 0-98.2 0.1-8.9-2.3-12.1-11.7-12.1-46.7 0.4-93.3 0.5-140 0-10-0.1-13.2 2.9-13 13 0.6 25.7 0.2 51.5 0.2 77.3 0 32.1 0 32.1 32.3 33.3 22.8 0.9 28.6 6.2 29 28.7 0.4 20.9-0.3 41.8 0.3 62.7 0.3 12.3-2.7 23-10.4 32.4H236.6L224 733V632.5c8.5-5.8 16.8-12.3 28-10.7 11.5 1.6 13.8-4 13.7-14.5-0.5-39.8-0.3-79.5-0.2-119.2 0.1-25.9 5.7-31.2 32.2-31.2 52.3 0 104.5 0.1 156.8-0.2 5.4-0.1 15.4 4 15.8-4.6 1-25 4.2-51.3-2.5-74.4-2.8-9.5-29.5-1.9-45.2-3.3-1.4-0.1-2.8 0-4.2 0-23.3-0.5-29.6-6.5-29.8-30-0.3-33.4 0.3-67-0.3-100.4-0.3-13.1 2.8-24.3 11.5-34.1h184.1c4.6 7.5 11.3 13.7 11.2 23.6-0.2 39 0.3 78.1-0.2 117.1-0.2 15.9-9.2 23.4-25.5 23.9-18.5 0.6-44.6-8.5-53.7 4-9.4 12.9-2.8 37.5-3.2 56.9 0 0.7 0.1 1.5 0 2.1-2.6 14.9 2.2 20.2 18.6 19.8 53-1.3 106-0.2 159-0.7 19.1-0.2 28.3 7.6 28.1 27.2-0.1 12.5-0.1 25-0.1 37.6 56.2 3.1 113.1 22.1 150.8 57.8V101.1c0-20.7-16.4-37.1-37.1-37.1H163c-20.7 0-37.1 16.4-37.1 37.1v798.6c0 20.7 16.4 37.1 37.1 37.1h394c-53.5-41.9-84.2-107-84.2-180.6z" p-id="4756"></path><path d="M711.7 553.9c-111.7 0-202.8 90.6-202.8 202.8 0 111.7 90.6 202.8 202.8 202.8 111.7 0 202.8-90.6 202.8-202.8s-91.1-202.8-202.8-202.8zM578.3 884.6c3-42.9 35.7-99 100.4-116-18.6-9.1-32.1-22.7-40-41.5-7.8-18.7-8.4-37.8-1.8-57 11.7-33.9 43.6-54.7 80.3-52.9 33 1.7 62.5 26.8 70.7 60.6 8.3 34-6.8 72.6-43.5 90.5 57.4 18 90.9 56.5 100.6 116.3H578.3z" p-id="4757"></path></svg>