<?xml version="1.0" standalone="no"?><!DOCTYPE svg PUBLIC "-//W3C//DTD SVG 1.1//EN" "http://www.w3.org/Graphics/SVG/1.1/DTD/svg11.dtd"><svg t="1665793851971" class="icon" viewBox="0 0 1068 1024" version="1.1" xmlns="http://www.w3.org/2000/svg" p-id="3054" xmlns:xlink="http://www.w3.org/1999/xlink" width="133.5" height="128"><path d="M923.959652 665.733565h6.277565c6.277565-25.154783 6.277565-56.542609 6.277566-81.697391a410.980174 410.980174 0 0 0-219.937392-364.588522v-18.832695c0-106.852174-81.741913-188.549565-188.594087-188.549566-106.852174 0-182.272 87.974957-182.272 194.827131v18.877217C213.704348 288.589913 125.729391 426.874435 125.729391 584.036174c0 31.432348 0 56.542609 6.233044 81.697391h6.322087c-62.864696 31.432348-106.852174 94.297043-106.852174 169.71687C31.432348 942.302609 113.085217 1024 219.937391 1024c62.864696 0 119.451826-31.432348 150.839652-75.419826 0 6.277565-6.233043 6.277565-6.233043 12.55513 50.265043 18.877217 106.852174 31.432348 169.672348 31.432348 62.864696 0 119.407304-12.55513 169.716869-37.709913 0 0-6.277565-6.277565-6.277565-12.55513 31.387826 50.309565 87.974957 81.697391 150.839652 81.697391 106.852174 0 188.549565-81.697391 188.549566-188.549565 0-75.419826-43.987478-138.284522-113.12974-169.71687zM534.26087 81.16313a126.085565 126.085565 0 0 1 125.729391 125.729392A126.085565 126.085565 0 0 1 534.26087 332.621913a126.085565 126.085565 0 0 1-125.729392-125.729391A126.085565 126.085565 0 0 1 534.26087 81.207652zM219.981913 961.179826a126.085565 126.085565 0 0 1-125.68487-125.684869A126.085565 126.085565 0 0 1 219.937391 709.676522a126.085565 126.085565 0 0 1 125.729392 125.729391 126.085565 126.085565 0 0 1-125.729392 125.68487z m440.008348-125.684869c0 25.110261 6.233043 50.309565 12.55513 69.14226v-6.322087c-43.987478 18.877217-88.019478 31.432348-138.284521 31.432348-50.309565 0-94.297043-12.55513-138.284522-31.432348v6.322087c6.277565-18.877217 12.55513-44.032 12.55513-69.14226 0-106.852174-81.697391-188.594087-188.549565-188.594087-12.55513 0-18.832696 0-31.432348 6.322087h6.277565c-6.233043-25.154783-6.233043-44.032-6.233043-69.142261 0-125.729391 69.097739-238.85913 175.949913-301.723826 25.154783 69.142261 94.297043 113.129739 169.71687 113.129739a193.402435 193.402435 0 0 0 175.994434-113.085218c100.574609 62.775652 169.71687 175.949913 169.71687 301.679305 0 25.110261 0 43.987478-6.277565 62.820174h6.233043-31.387826c-106.852174 0-188.549565 81.741913-188.549565 188.594087z m31.387826 100.574608c-6.233043-6.322087-6.233043-12.599652-12.55513-18.877217 6.277565 6.277565 6.277565 12.55513 12.55513 18.877217z m-314.234435 0c6.233043-6.322087 6.233043-12.599652 12.555131-18.877217-6.277565 6.277565-6.277565 12.55513-12.555131 18.877217zM150.839652 659.812174c6.277565 0 12.599652-6.678261 18.877218-6.678261 0 0-12.599652 6.678261-18.877218 6.678261z m201.149218-408.976696c0 6.277565 6.678261 18.877217 6.67826 25.154783 0-12.55513-6.678261-18.877217-6.67826-25.154783z m364.944695 0c0 6.277565-6.678261 18.877217-6.678261 25.154783 0-12.55513 6.678261-18.877217 6.678261-25.154783z m200.748522 408.976696c-6.277565 0-12.599652-6.678261-18.877217-6.678261 0 0 12.599652 6.678261 18.877217 6.678261z m-69.142261 301.278609a126.085565 126.085565 0 0 1-125.729391-125.68487 126.085565 126.085565 0 0 1 125.729391-125.729391 126.085565 126.085565 0 0 1 125.68487 125.729391 126.085565 126.085565 0 0 1-125.68487 125.68487z" p-id="3055" fill="#cdcdcd"></path></svg>