<?xml version="1.0" standalone="no"?><!DOCTYPE svg PUBLIC "-//W3C//DTD SVG 1.1//EN" "http://www.w3.org/Graphics/SVG/1.1/DTD/svg11.dtd"><svg t="1665793958548" class="icon" viewBox="0 0 1024 1024" version="1.1" xmlns="http://www.w3.org/2000/svg" p-id="3577" xmlns:xlink="http://www.w3.org/1999/xlink" width="128" height="128"><path d="M333 815.2H139.9c-2.6 0-4.7-2.1-4.7-4.7V197c0-2.6 2.1-4.7 4.7-4.7h512.9c2.6 0 4.7 2.1 4.7 4.7v76.9c0 11 9 20 20 20s20-9 20-20V197c0-24.6-20-44.7-44.7-44.7H139.9c-24.6 0-44.7 20-44.7 44.7v613.5c0 24.6 20 44.7 44.7 44.7H333c11 0 20-9 20-20s-8.9-20-20-20z" fill="#cdcdcd" p-id="3578"></path><path d="M217 293.1m-19 0a19 19 0 1 0 38 0 19 19 0 1 0-38 0Z" fill="#cdcdcd" p-id="3579"></path><path d="M596 291c0-11-9-20-20-20H303c-11 0-20 9-20 20s9 20 20 20h273c11 0 20-9 20-20z" fill="#cdcdcd" p-id="3580"></path><path d="M217 423.8m-19 0a19 19 0 1 0 38 0 19 19 0 1 0-38 0Z" fill="#cdcdcd" p-id="3581"></path><path d="M303 401c-11 0-20 9-20 20s9 20 20 20h150c11 0 20-9 20-20s-9-20-20-20H303z" fill="#cdcdcd" p-id="3582"></path><path d="M217 697.7m-19 0a19 19 0 1 0 38 0 19 19 0 1 0-38 0Z" fill="#cdcdcd" p-id="3583"></path><path d="M323 715c11 0 20-9 20-20s-9-20-20-20h-20c-11 0-20 9-20 20s9 20 20 20h20z" fill="#cdcdcd" p-id="3584"></path><path d="M217 560.8m-19 0a19 19 0 1 0 38 0 19 19 0 1 0-38 0Z" fill="#cdcdcd" p-id="3585"></path><path d="M344 538h-41c-11 0-20 9-20 20s9 20 20 20h41c11 0 20-9 20-20s-9-20-20-20z m547.9 135.4c3.2-15.9 4.8-32.3 4.8-48.6 0-51.6-15.7-101-45.4-142.9-27.9-39.4-66-69.4-110.5-87.2-3-47.9-43-86-91.7-86s-88.7 38.1-91.7 86c-44.4 17.7-82.4 47.5-110.2 86.7-29.9 42-45.7 91.6-45.7 143.4 0 16.4 1.6 32.7 4.8 48.7-24.5 16.5-40.7 44.5-40.7 76.3 0 50.7 41.2 91.9 91.9 91.9 18.1 0 34.9-5.2 49.2-14.3 41.8 29.5 90.9 45.1 142.5 45.1 51 0 101-15.9 142.5-45.1 14.2 9.1 31.1 14.3 49.2 14.3 50.7 0 91.9-41.2 91.9-91.9-0.2-31.9-16.4-59.9-40.9-76.4zM649 348.6c28.6 0 51.9 23.3 51.9 51.9 0 28.6-23.3 51.9-51.9 51.9s-51.9-23.3-51.9-51.9c0-28.6 23.3-51.9 51.9-51.9zM405.4 749.7c0-28.6 23.3-51.9 51.9-51.9s51.9 23.3 51.9 51.9-23.3 51.9-51.9 51.9-51.9-23.3-51.9-51.9z m129.8 48.7c8.9-14.1 14-30.8 14-48.7 0-50.7-41.2-91.9-91.9-91.9-4.5 0-8.9 0.3-13.2 0.9-1.8-11.2-2.8-22.6-2.8-34 0-81.9 48.7-156.2 122.6-189.5 13.7 33.5 46.7 57.1 85.1 57.1 38.4 0 71.3-23.7 85.1-57.1 73.9 33.2 122.6 107.7 122.6 189.5 0 11.4-1 22.8-2.8 34-4.3-0.6-8.7-0.9-13.2-0.9-50.7 0-91.9 41.2-91.9 91.9 0 17.9 5.1 34.6 14 48.7-33.8 22.3-72.7 33.9-113.8 33.9-41 0.1-80-11.6-113.8-33.9z m305.5 3.2c-12.3 0-23.6-4.3-32.5-11.5-0.2-0.3-0.4-0.6-0.6-0.8-1.4-1.8-3.1-3.2-5-4.4-8.6-9.3-13.8-21.6-13.8-35.2 0-28.6 23.3-51.9 51.9-51.9s51.9 23.3 51.9 51.9-23.3 51.9-51.9 51.9z" fill="#cdcdcd" p-id="3586"></path></svg>