<?xml version="1.0" standalone="no"?><!DOCTYPE svg PUBLIC "-//W3C//DTD SVG 1.1//EN" "http://www.w3.org/Graphics/SVG/1.1/DTD/svg11.dtd"><svg t="1665794265530" class="icon" viewBox="0 0 1024 1024" version="1.1" xmlns="http://www.w3.org/2000/svg" p-id="4013" xmlns:xlink="http://www.w3.org/1999/xlink" width="128" height="128"><path d="M58.915721 910.336V70.394047c0-4.619907 3.619721-8.477767 8.108651-8.477768h675.744744c4.48893 0 8.108651 3.738791 8.108651 8.477768v338.872558h58.641861V70.394047c0-38.423814-29.946047-69.739163-66.750512-69.739163H67.155349C30.350884 0.654884 0.404837 31.970233 0.404837 70.394047v839.941953c0 38.423814 29.946047 69.739163 66.619535 69.739163H445.32093v-61.380465H67.024372a8.227721 8.227721 0 0 1-8.108651-8.358698z m796.017116-160.208372H794.552558v-96.446512c0-16.467349-13.597767-29.81507-30.315163-29.815069s-30.315163 13.347721-30.315162 29.815069v126.273489c0 16.467349 13.597767 29.81507 30.315162 29.815069h90.707349c16.717395 0 30.315163-13.347721 30.315163-29.815069 0-16.479256-13.597767-29.826977-30.32707-29.826977z m0 0" p-id="4014" fill="#cdcdcd"></path><path d="M255.928558 602.659721c0 16.467349 13.597767 29.81507 30.315163 29.81507h121.022512c16.717395 0 30.315163-13.347721 30.315162-29.81507s-13.597767-29.81507-30.315162-29.81507H286.243721c-16.717395 0-30.315163 13.347721-30.315163 29.81507z m378.665675-346.481116H286.243721c-16.717395 0-30.315163 13.347721-30.315163 29.815069 0 16.598326 13.597767 29.826977 30.315163 29.826977h348.350512c16.717395 0 30.196093-13.359628 30.196093-29.826977 0.130977-16.467349-13.478698-29.81507-30.196093-29.815069z m30.327069 185.153488c0-16.467349-13.478698-29.81507-30.196093-29.81507H286.243721c-16.717395 0-30.315163 13.347721-30.315163 29.81507s13.597767 29.826977 30.315163 29.826977h348.350512c16.717395 0 30.32707-13.359628 30.327069-29.826977z m102.054698 70.370233c-141.109581 0-255.523721 114.283163-255.523721 255.523721 0 141.121488 114.41414 255.523721 255.523721 255.52372 141.121488 0 255.523721-114.41414 255.523721-255.52372 0-141.240558-114.41414-255.523721-255.523721-255.523721z m0 446.047255c-105.174326-0.130977-190.392558-85.349209-190.523535-190.523534 0.130977-105.174326 85.349209-190.392558 190.523535-190.523535 105.186233 0.130977 190.404465 85.349209 190.523535 190.523535-0.130977 105.174326-85.349209 190.392558-190.523535 190.523534z m0 0" p-id="4015" fill="#cdcdcd"></path></svg>