<svg t="1654480862757" class="icon" viewBox="0 0 1097 1024" version="1.1" xmlns="http://www.w3.org/2000/svg" p-id="15011" width="128" height="128"><path d="M641.314999 873.425705L361.938784 358.649162a200.208842 200.208842 0 0 0 37.724412-63.05366h286.004933l9.538887 9.592779c82.885922 83.90987 152.945543 135.807882 197.136997 135.268962 57.125538-0.377244 122.011526-32.928022 179.783767-111.287014l0.862273-1.077841a32.658562 32.658562 0 0 0-8.730507-45.269294 34.975919 34.975919 0 0 0-47.586651 7.922127c-46.347134 62.568631-83.694302 83.209274-124.54445 83.424841-24.251408 0-72.323086-40.850149-137.694103-105.412784V187.434225c72.053626-79.921861 125.460615-121.257038 138.125239-120.664226 39.933984 1.616761 71.999734 7.922126 126.107319 68.820105a35.083703 35.083703 0 0 0 48.502815 3.610766 32.33521 32.33521 0 0 0 4.796389-45.538755l-1.023948-1.239516C1005.409464 18.590536 941.43964 2.261255 892.290121 0.051682c-44.730374-1.886221-104.550512 47.856111-198.376514 153.10722l-8.461046 9.484995h-285.627689a205.75972 205.75972 0 0 0-194.01126-132.951605C92.155349 29.746184 0 119.045255 0 229.200538s92.155349 199.400462 205.75972 199.400461a354.501686 354.501686 0 0 0 48.502815-3.341305l239.71169 448.166011H0V1024h1097.349244v-150.574295z" p-id="15012"></path></svg>