<svg t="1654480153913" class="icon" viewBox="0 0 1024 1024" version="1.1" xmlns="http://www.w3.org/2000/svg" p-id="11209" width="128" height="128"><path d="M299.776 85.333333a42.666667 42.666667 0 0 1 42.410667 37.674667l0.256 4.992v195.370667l244.266666-122.581334a42.666667 42.666667 0 0 1 61.568 33.237334l0.256 4.906666-0.042666 90.026667 316.672-129.536a42.666667 42.666667 0 0 1 58.538666 34.56l0.298667 4.949333v273.066667a42.666667 42.666667 0 0 1-85.034667 4.992L938.666667 512v-209.536l-316.629334 129.578667a42.666667 42.666667 0 0 1-58.538666-34.56l-0.298667-4.949334-0.042667-84.48-244.224 122.624a42.666667 42.666667 0 0 1-61.525333-33.237333l-0.298667-4.906667V170.666667H85.333333v682.666666h384a42.666667 42.666667 0 0 1 42.368 37.674667l0.298667 4.992a42.666667 42.666667 0 0 1-37.674667 42.368L469.333333 938.666667h-426.666666a42.666667 42.666667 0 0 1-42.368-37.674667L0 896v-768a42.666667 42.666667 0 0 1 37.674667-42.368L42.666667 85.333333h257.109333z" p-id="11210"></path><path d="M384 512h-170.666667a42.666667 42.666667 0 0 0-42.666666 42.666667v170.666666a42.666667 42.666667 0 0 0 42.666666 42.666667h170.666667a42.666667 42.666667 0 0 0 42.666667-42.666667v-170.666666a42.666667 42.666667 0 0 0-42.666667-42.666667z m-42.666667 85.333333v85.333334h-85.333333v-85.333334h85.333333z" p-id="11211"></path><path d="M640 938.666667m42.666667 0l298.666666 0q42.666667 0 42.666667 42.666666l0 0q0 42.666667-42.666667 42.666667l-298.666666 0q-42.666667 0-42.666667-42.666667l0 0q0-42.666667 42.666667-42.666666Z" p-id="11212"></path><path d="M640 768m42.666667 0l298.666666 0q42.666667 0 42.666667 42.666667l0 0q0 42.666667-42.666667 42.666666l-298.666666 0q-42.666667 0-42.666667-42.666666l0 0q0-42.666667 42.666667-42.666667Z" p-id="11213"></path><path d="M640 597.333333m42.666667 0l298.666666 0q42.666667 0 42.666667 42.666667l0 0q0 42.666667-42.666667 42.666667l-298.666666 0q-42.666667 0-42.666667-42.666667l0 0q0-42.666667 42.666667-42.666667Z" p-id="11214"></path></svg>