<svg t="1654494252083" class="icon" viewBox="0 0 1024 1024" version="1.1" xmlns="http://www.w3.org/2000/svg" p-id="16395" width="128" height="128"><path d="M981.333333 0 42.666667 0 0 0l0 42.666667 0 938.666667 0 42.666667 42.666667 0 938.666667 0 42.666667 0 0-42.666667L1024 42.666667 1024 0 981.333333 0zM981.333333 981.333333 42.666667 981.333333 42.666667 42.666667l938.666667 0L981.333333 981.333333z" p-id="16396"></path><path d="M661.333333 469.333333l42.666667 0 0-42.666667 0-128 0-42.666667-42.666667 0L362.666667 256l-42.666667 0 0 42.666667 0 128 0 42.666667 42.666667 0L661.333333 469.333333zM362.666667 298.666667l298.666667 0 0 128L362.666667 426.666667 362.666667 298.666667z" p-id="16397"></path><path d="M533.333333 512l0 42.666667 0 149.333333 0 42.666667 42.666667 0 149.333333 0 42.666667 0 0-42.666667 0-149.333333 0-42.666667-42.666667 0-149.333333 0L533.333333 512zM725.333333 554.666667l0 149.333333-149.333333 0 0-149.333333L725.333333 554.666667z" p-id="16398"></path><path d="M298.666667 746.666667l149.333333 0 42.666667 0 0-42.666667 0-149.333333 0-42.666667-42.666667 0-149.333333 0-42.666667 0 0 42.666667 0 149.333333 0 42.666667L298.666667 746.666667zM298.666667 554.666667l149.333333 0 0 149.333333-149.333333 0L298.666667 554.666667z" p-id="16399"></path></svg>