<?xml version="1.0" standalone="no"?><!DOCTYPE svg PUBLIC "-//W3C//DTD SVG 1.1//EN" "http://www.w3.org/Graphics/SVG/1.1/DTD/svg11.dtd"><svg t="1656117235836" class="icon" viewBox="0 0 1024 1024" version="1.1" xmlns="http://www.w3.org/2000/svg" p-id="1683" width="128" height="128" xmlns:xlink="http://www.w3.org/1999/xlink"><defs><style type="text/css">@font-face { font-family: feedback-iconfont; src: url("//at.alicdn.com/t/font_1031158_u69w8yhxdu.woff2?t=1630033759944") format("woff2"), url("//at.alicdn.com/t/font_1031158_u69w8yhxdu.woff?t=1630033759944") format("woff"), url("//at.alicdn.com/t/font_1031158_u69w8yhxdu.ttf?t=1630033759944") format("truetype"); }
</style></defs><path d="M411.306667 763.306667a35.413333 35.413333 0 0 0-35.413334-35.626667H157.44V156.373333h669.013333v256a35.626667 35.626667 0 1 0 71.253334 0V120.96A35.626667 35.626667 0 0 0 862.08 85.333333H121.813333a35.413333 35.413333 0 0 0-35.413333 35.626667v642.346667a35.413333 35.413333 0 0 0 35.413333 35.626666h254.72a35.413333 35.413333 0 0 0 34.773334-35.626666z m34.773333 104.32h-194.773333a35.626667 35.626667 0 1 0 0 71.04h194.773333a35.626667 35.626667 0 1 0 0-71.04z" p-id="1684"></path><path d="M908.16 765.44h-29.653333v-110.293333a177.493333 177.493333 0 0 0-147.84-174.72v-30.08a29.653333 29.653333 0 0 0-59.306667 0v30.08a177.493333 177.493333 0 0 0-147.84 174.72v110.293333h-29.653333a29.653333 29.653333 0 0 0 0 59.093333h414.293333a29.653333 29.653333 0 0 0 0-59.093333z m-88.746667 0h-236.8v-110.293333a118.4 118.4 0 0 1 236.8 0zM701.013333 932.906667a69.333333 69.333333 0 0 0 69.12-69.12h-138.24a69.333333 69.333333 0 0 0 69.12 69.12zM242.56 648.32a40.106667 40.106667 0 0 1-39.04-49.706667c25.813333-106.666667 27.733333-108.16 34.773333-115.413333L490.666667 232.32a40.106667 40.106667 0 0 1 56.533333 0l72.32 72.32a40.533333 40.533333 0 0 1 0 56.746667L367.573333 612.266667c-7.253333 7.253333-9.173333 9.386667-115.413333 34.986666a36.906667 36.906667 0 0 1-9.6 1.066667z m-4.693333-60.16z m48.213333-66.56c-2.346667 8.106667-7.466667 26.453333-15.146667 58.453333 31.786667-7.893333 50.133333-12.8 58.24-15.36l233.386667-231.466666-42.666667-42.666667z m291.2-203.093333z" p-id="1685"></path></svg>