<?xml version="1.0" standalone="no"?><!DOCTYPE svg PUBLIC "-//W3C//DTD SVG 1.1//EN" "http://www.w3.org/Graphics/SVG/1.1/DTD/svg11.dtd"><svg t="1665475159345" class="icon" viewBox="0 0 1024 1024" version="1.1" xmlns="http://www.w3.org/2000/svg" p-id="4494" xmlns:xlink="http://www.w3.org/1999/xlink" width="128" height="128"><path d="M298.666667 128h426.666666a42.666667 42.666667 0 0 0 42.666667-42.666667V0H256v85.333333a42.666667 42.666667 0 0 0 42.666667 42.666667z" p-id="4495"></path><path d="M938.666667 0h-85.333334v128a85.333333 85.333333 0 0 1-85.333333 85.333333H256a85.333333 85.333333 0 0 1-85.333333-85.333333V0H85.333333a85.333333 85.333333 0 0 0-85.333333 85.333333v853.333334a85.333333 85.333333 0 0 0 85.333333 85.333333h853.333334a85.333333 85.333333 0 0 0 85.333333-85.333333V85.333333a85.333333 85.333333 0 0 0-85.333333-85.333333zM150.186667 546.56a25.173333 25.173333 0 0 1 25.6-24.746667h170.666666a26.026667 26.026667 0 0 1 26.453334 24.746667v4.266667a25.6 25.6 0 0 1-26.026667 25.173333h-170.666667a25.6 25.6 0 0 1-25.6-25.173333z m0 142.933333a25.173333 25.173333 0 0 1 25.6-24.746666h248.32a25.173333 25.173333 0 0 1 25.6 24.746666v4.693334a25.173333 25.173333 0 0 1-25.6 24.746666H175.786667a25.173333 25.173333 0 0 1-25.6-24.746666z m322.133333 168.533334h-298.666667a28.16 28.16 0 0 1-28.586666-27.306667 27.733333 27.733333 0 0 1 28.16-27.306667h298.666666a27.306667 27.306667 0 1 1 0 54.613334z m469.333333-372.906667v98.986667h-54.613333a158.293333 158.293333 0 0 1-6.826667 20.053333c-2.56 5.546667-4.693333 10.666667-7.68 15.786667l39.68 40.106666-71.68 72.533334-39.68-39.68a107.946667 107.946667 0 0 1-15.786666 7.68 130.56 130.56 0 0 1-20.48 7.253333v56.32h-101.546667v-55.04a135.253333 135.253333 0 0 1-20.906667-7.253333 107.946667 107.946667 0 0 1-15.786666-7.68l-40.106667 39.68-69.973333-69.546667 38.4-41.386667a107.946667 107.946667 0 0 1-7.68-15.786666c-2.56-6.4-5.12-13.226667-7.253334-20.053334h-58.026666v-101.973333h56.32a182.186667 182.186667 0 0 1 16.213333-38.826667l-40.106667-39.68 69.973334-69.973333 40.106666 39.68a182.186667 182.186667 0 0 1 38.826667-16.213333V303.786667h98.986667v56.32a192 192 0 0 1 38.826666 16.213333l39.68-39.68 69.973334 69.973333-39.68 39.68a182.186667 182.186667 0 0 1 16.213333 38.826667z" p-id="4496"></path><path d="M828.586667 524.8v-9.386667-2.133333c0-2.133333 0-6.4-2.133334-9.386667s0 0 0-2.56a45.653333 45.653333 0 0 0-2.986666-8.106666v-2.133334a116.48 116.48 0 0 0-213.333334 0v2.133334l-2.56 8.106666a5.973333 5.973333 0 0 0 0 2.56A74.24 74.24 0 0 0 597.333333 512a3.84 3.84 0 0 0 0 2.133333v11.946667a51.626667 51.626667 0 0 0 0 8.106667v3.84a47.36 47.36 0 0 0 0 7.253333 14.506667 14.506667 0 0 0 0 4.266667 42.666667 42.666667 0 0 0 0 6.826666v4.693334a116.48 116.48 0 0 0 82.773334 85.333333 120.32 120.32 0 0 0 30.293333 3.84 116.053333 116.053333 0 0 0 113.066667-88.746667v-11.52-4.266666a42.666667 42.666667 0 0 0 0-7.253334v-3.84a51.626667 51.626667 0 0 0 0-8.106666z" p-id="4497"></path></svg>